<?xml version="1.0" encoding="utf-8"?>
<!-- Generator: Adobe Illustrator 23.0.2, SVG Export Plug-In . SVG Version: 6.00 Build 0)  -->
<svg version="1.1" id="Layer_1" xmlns="http://www.w3.org/2000/svg" xmlns:xlink="http://www.w3.org/1999/xlink" x="0px" y="0px"
	 viewBox="0 0 256 256" style="enable-background:new 0 0 256 256;" xml:space="preserve">
<style type="text/css">
	.st0{fill:#239CED;}
</style>
<g>
	<path class="st0" d="M202,168.96c-0.38,0-0.75,0-1.13,0.03c8.45-13.41,13.32-29.28,13.32-46.3c0-19.13-6.18-36.82-16.64-51.19
		c17.38-1.1,31.14-15.54,31.14-33.2c0-18.37-14.9-33.27-33.27-33.27c-18.37,0-33.27,14.9-33.27,33.27c0,1.62,0.11,3.21,0.34,4.78
		c-10.83-4.84-22.81-7.51-35.43-7.51c-14.39,0-27.99,3.5-39.95,9.69c0.07-0.82,0.1-1.65,0.1-2.48c0-18.38-14.9-33.27-33.27-33.27
		c-18.38,0-33.27,14.89-33.27,33.27c0,18.22,14.65,33.03,32.82,33.26c-8.59,13.49-13.55,29.49-13.55,46.67
		c0,17.06,4.91,32.96,13.37,46.38c-17.17,1.3-30.71,15.64-30.71,33.16c0,18.37,14.9,33.27,33.27,33.27c1.75,0,3.45-0.13,5.13-0.39
		c6.08,7.71,15.51,12.66,26.1,12.66c7.44,0,14.31-2.44,19.85-6.57c5.92,5.46,13.84,8.8,22.54,8.8c7.33,0,14.11-2.37,19.6-6.39
		c4.77,2.65,10.26,4.16,16.1,4.16c11.08,0,20.89-5.43,26.94-13.76c3.12,0.97,6.43,1.49,9.87,1.49c18.37,0,33.27-14.9,33.27-33.27
		C235.27,183.85,220.37,168.96,202,168.96z M168.34,92.45c7.01,0,12.69,5.68,12.69,12.69c0,7.01-5.68,12.69-12.69,12.69
		c-7.01,0-12.69-5.68-12.69-12.69C155.65,98.13,161.34,92.45,168.34,92.45z M91.79,107.37c0,7.01-5.68,12.69-12.69,12.69
		c-7.01,0-12.69-5.68-12.69-12.69c0-7.01,5.68-12.69,12.69-12.69C86.11,94.68,91.79,100.36,91.79,107.37z"/>
</g>
</svg>
